<?xml version="1.0" ?><!DOCTYPE svg  PUBLIC '-//W3C//DTD SVG 1.0//EN'  'http://www.w3.org/TR/2001/REC-SVG-20010904/DTD/svg10.dtd'><svg enable-background="new 0 0 200 200" height="200px" id="Layer_1" version="1.0" viewBox="0 0 200 200" width="200px" xml:space="preserve" xmlns="http://www.w3.org/2000/svg" xmlns:xlink="http://www.w3.org/1999/xlink"><g id="New_Symbol"/><g id="New_Symbol_1_"/><g id="New_Symbol_1"/><g id="New_Symbol_9_2_"/><g id="New_Symbol_7"/><g id="New_Symbol_9_1_"/><g id="New_Symbol_9"/><g id="Nuevo_símbolo"/><g id="New_Symbol_10"/><g id="New_Symbol_12"/><g id="New_Symbol_14"/><g id="New_Symbol_15"/><g id="New_Symbol_16"/><g id="New_Symbol_17_1_"/><g id="New_Symbol_18"/><g id="New_Symbol_19"/><g id="New_Symbol_17"/><g><path d="M100,75.8c-13.4,0-24.2,10.9-24.2,24.2s10.9,24.2,24.2,24.2s24.2-10.9,24.2-24.2S113.4,75.8,100,75.8z M100,121.2   c-11.7,0-21.2-9.5-21.2-21.2s9.5-21.2,21.2-21.2s21.2,9.5,21.2,21.2S111.7,121.2,100,121.2z"/><path d="M100,86c-7.7,0-14,6.3-14,14s6.3,14,14,14s14-6.3,14-14S107.7,86,100,86z M100,111c-6.1,0-11-4.9-11-11s4.9-11,11-11   s11,4.9,11,11S106.1,111,100,111z"/><path d="M182.7,100c0-41.4-30.5-75.7-70.2-81.7c0,0,0,0-0.1,0c-1.2-0.2-2.3-0.3-3.5-0.4c-0.3,0-0.6-0.1-0.9-0.1   c-1.1-0.1-2.2-0.2-3.3-0.2c-0.2,0-0.3,0-0.5,0c-1.2-0.1-2.4-0.1-3.6-0.1c-0.2,0-0.4,0-0.6,0c-0.2,0-0.4,0-0.6,0c-1,0-2.1,0-3.1,0.1   c-0.3,0-0.6,0-0.9,0c-1.1,0.1-2.1,0.1-3.2,0.2c-0.4,0-0.8,0.1-1.2,0.1c-0.3,0-0.6,0.1-0.9,0.1c-0.1,0-0.2,0-0.2,0.1   c-6,0.7-11.7,2.1-17.2,4c-0.1,0-0.2,0-0.3,0.1c-0.2,0.1-0.5,0.2-0.7,0.3c0,0,0,0,0,0c-1.9,0.7-3.8,1.5-5.6,2.3   c-0.1,0.1-0.2,0.1-0.3,0.2C37.2,37.9,17.3,66.7,17.3,100c0,12.8,2.9,25,8.2,35.9c0,0.1,0,0.2,0.1,0.2c1,2,2.1,4,3.2,6   c0,0.1,0.1,0.1,0.1,0.2c12.2,20.5,33,35.3,57.4,39.3c0.1,0,0.1,0,0.2,0c0.1,0,0.3,0,0.4,0.1c0.5,0.1,1,0.1,1.4,0.2   c0.8,0.1,1.6,0.2,2.4,0.3c0.5,0.1,1,0.1,1.6,0.2c0.8,0.1,1.6,0.1,2.4,0.2c0.5,0,0.9,0.1,1.4,0.1c1.3,0.1,2.6,0.1,3.8,0.1   c1.3,0,2.6,0,3.9-0.1c0.2,0,0.3,0,0.5,0c1.2-0.1,2.4-0.2,3.5-0.3c0.3,0,0.5,0,0.8-0.1c0.1,0,0.2,0,0.3,0c0,0,0.1,0,0.1,0   C150.5,177.6,182.7,142.5,182.7,100z M171,135.9l-39.3-19.2l40.8,15.9C172,133.7,171.5,134.8,171,135.9z M179.7,100   c0,10.6-2.1,20.6-5.8,29.9l-46.3-18.1c1.6-3.6,2.4-7.6,2.4-11.8c0-14.6-10.5-26.7-24.3-29.4l7.8-49.1   C151,27.9,179.7,60.6,179.7,100z M123.9,111.9c-0.3,0.7-0.6,1.4-1,2c0,0.1-0.1,0.2-0.1,0.3c-4.3,6.9-11.7,11.7-20.2,12.5   c-0.5,0.1-1,0.1-1.6,0.1c-0.2,0-0.3,0-0.5,0c-0.4,0-0.9,0-1.3,0c-0.1,0-0.2,0-0.3,0c-1.2,0-2.4-0.2-3.6-0.4   c-8.2-1.4-15.1-6.6-18.9-13.6c0-0.1-0.1-0.1-0.1-0.2c-2.1-3.8-3.2-8.1-3.2-12.8c0-13.7,10.3-25,23.5-26.7c0.6-0.1,1.2-0.1,1.7-0.2   c0,0,0,0,0.1,0c0.6,0,1.2-0.1,1.7-0.1c0,0,0.1,0,0.1,0c0.5,0,1,0,1.5,0.1c0.1,0,0.2,0,0.3,0c0.5,0,1,0.1,1.6,0.2   c13.1,1.8,23.3,13.1,23.3,26.7c0,4-0.9,7.9-2.5,11.3C124.2,111.5,124,111.7,123.9,111.9z M104.4,179.5c-0.3,0-0.6,0-0.9,0   c-1.2,0.1-2.3,0.1-3.5,0.1c-0.1,0-0.3,0-0.4,0c-1.1,0-2.2,0-3.4-0.1c-0.2,0-0.4,0-0.6,0c-1.1-0.1-2.3-0.2-3.4-0.3   c-0.3,0-0.6-0.1-0.9-0.1c-1-0.1-2-0.2-2.9-0.4l7.8-49.2c0,0,0.1,0,0.1,0c0.3,0,0.6,0.1,1,0.1c0.2,0,0.4,0,0.6,0c0.2,0,0.5,0,0.7,0   c0.3,0,0.7,0,1,0c0.1,0,0.2,0,0.3,0c0,0,0.1,0,0.1,0c0.5,0,0.9,0,1.4,0c0,0,0.1,0,0.1,0l5.7,49.5   C106.3,179.4,105.4,179.5,104.4,179.5z M71.9,25.5l14,40.8L68.6,26.8C69.7,26.3,70.8,25.9,71.9,25.5z M74.7,24.5   c4.6-1.5,9.3-2.7,14.2-3.3l5.7,49.5c-1.3,0.2-2.6,0.5-3.8,0.9L74.7,24.5z M95.4,20.5c0.3,0,0.5,0,0.8,0c1.1-0.1,2.3-0.1,3.4-0.1   c0.2,0,0.5,0,0.7,0c1.2,0,2.4,0,3.5,0.1c0.2,0,0.4,0,0.5,0c2,0.1,4,0.3,6,0.6l-7.8,49.2c-0.1,0-0.3,0-0.4,0c-0.3,0-0.6,0-0.9-0.1   c-0.5,0-0.9,0-1.4,0c-0.7,0-1.5,0-2.2,0.1c0,0-0.1,0-0.1,0l-5.7-49.4c0,0,0.1,0,0.1,0C93.2,20.6,94.3,20.5,95.4,20.5z M65.9,28   l20,45.6c-9.4,5.1-15.8,15-15.8,26.4c0,4.1,0.8,7.9,2.3,11.5l-44.7,21.9c-4.7-10.2-7.4-21.5-7.4-33.4C20.3,68.3,39,40.8,65.9,28z    M29,136.1l38.2-18.8l-36.6,21.9C30.1,138.2,29.5,137.1,29,136.1z M32.2,141.8l42.7-25.5c4.2,6.4,10.7,11.2,18.4,12.9l-7.8,49.2   C63.1,174.2,43.8,160.6,32.2,141.8z M110.2,179l-5.7-49.4c8.5-1.3,15.8-6.1,20.3-12.9l44.8,21.9C157.6,160.2,135.8,175.7,110.2,179   z"/></g></svg>